<svg xmlns="http://www.w3.org/2000/svg" viewBox="0 0 64 64" role="img" aria-label="Cat favicon with small o">
  <rect x="2" y="2" width="60" height="60" rx="14" fill="#09090B" />
  <g transform="translate(7 10.8) scale(0.0725)" fill="#F8FAFC">
    <path d="M64 96c53 0 96 43 96 96l0 85.8c29.7-44.7 77.8-76.2 133.4-84 25.6 60 85.2 102.1 154.6 102.1 10.9 0 21.6-1.1 32-3.1L480 480c0 17.7-14.3 32-32 32s-32-14.3-32-32l0-140.8-136 108.8 56 0c17.7 0 32 14.3 32 32s-14.3 32-32 32l-144 0c-53 0-96-43-96-96l0-224c0-16.6-12.6-30.2-28.7-31.8l-6.6-.3C44.6 158.2 32 144.6 32 128 32 110.3 46.3 96 64 96zM533.8 3.2C544.2-5.5 560 1.9 560 15.5L560 128c0 61.9-50.1 112-112 112S336 189.9 336 128l0-112.5c0-13.6 15.8-21 26.2-12.3L416 48 480 48 533.8 3.2zM400 108a20 20 0 1 0 0 40 20 20 0 1 0 0-40zm96 0a20 20 0 1 0 0 40 20 20 0 1 0 0-40z" />
  </g>
  <circle cx="51.8" cy="46" r="5.2" fill="none" stroke="#FB923C" stroke-width="2.6" />
</svg>
